#!OML:ASF F:\VICON\USERDATA\INSTALL\rory3\rory3.ASF
:FULLY-SPECIFIED
:DEGREES
225
root -0.11362 17.9356 -0.421802 2.72924 -10.5484 2.34802
lowerback -1.18525 -1.79454 -4.71686
upperback -1.58448 -2.35847 3.30891
thorax -0.639834 -1.1259 6.06152
lowerneck -32.1963 -1.02963 -8.63248
upperneck 1.48901 1.10739 6.71563
head 5.15308 1.00369 3.73484
rclavicle -1.71607e-014 2.38542e-015
rhumerus -32.5081 -0.606046 -79.9473
rradius 30.8066
rwrist 19.7392
rhand -17.8352 8.0023
rfingers 7.12502
rthumb 8.42937 -21.8095
lclavicle -1.71607e-014 2.38542e-015
lhumerus 56.0336 8.40566 49.4924
lradius 99.136
lwrist -16.5663
lhand -47.7192 20.8091
lfingers 7.12502
lthumb -20.3985 49.7577
rfemur -7.82945 9.00189 13.9335
rtibia 26.3537
rfoot -18.0861 -2.93224
rtoes 3.63698
lfemur 2.99604 -1.96034 -23.0941
ltibia 9.0994
lfoot -10.2906 6.31591
ltoes -12.719
226
root -0.114327 17.9354 -0.423853 2.70329 -10.5398 2.43486
lowerback -1.14262 -1.79155 -4.79142
upperback -1.56587 -2.35575 3.28008
thorax -0.643297 -1.12429 6.07494
lowerneck -32.3228 -1.05598 -8.69499
upperneck 1.53806 1.09709 6.79733
head 5.18577 1.0066 3.77359
rclavicle 7.65632e-015 1.19271e-014
rhumerus -32.4257 -0.692491 -79.9351
rradius 30.7069
rwrist 19.815
rhand -17.83 7.99669
rfingers 7.12502
rthumb 8.43436 -21.8149
lclavicle 7.65632e-015 1.19271e-014
lhumerus 56.1131 8.49629 49.5032
lradius 99.1789
lwrist -16.5636
lhand -47.7766 20.7756
lfingers 7.12502
lthumb -20.4537 49.7183
rfemur -7.81318 8.9921 13.8342
rtibia 26.3561
rfoot -18.084 -2.86919
rtoes 3.89214
lfemur 2.987 -1.97167 -23.1846
ltibia 9.12478
lfoot -10.2673 6.31087
ltoes -12.6124
227
root -0.114296 17.937 -0.426488 2.72032 -10.5294 2.40642
lowerback -1.09575 -1.78507 -4.74804
upperback -1.59254 -2.34899 3.2862
thorax -0.69947 -1.11881 6.05893
lowerneck -32.3743 -1.08144 -8.7613
upperneck 1.58558 1.08313 6.88399
head 5.209 1.00724 3.81316
rclavicle -3.06408e-014 -9.54166e-015
rhumerus -32.4873 -0.644294 -79.933
rradius 30.7199
rwrist 19.754
rhand -17.7396 7.98749
rfingers 7.12502
rthumb 8.52168 -21.8206
lclavicle -3.06408e-014 -9.54166e-015
lhumerus 56.1279 8.51248 49.4241
lradius 99.1995
lwrist -16.2486
lhand -47.9745 20.5045
lfingers 7.12502
lthumb -20.6439 49.4267
rfemur -7.83079 9.01009 13.863
rtibia 26.3632
rfoot -18.1193 -2.85778
rtoes 4.17734
lfemur 2.96702 -1.98126 -23.1483
ltibia 9.10455
lfoot -10.2279 6.30072
ltoes -12.5263
228
root -0.11501 17.9375 -0.428224 2.76264 -10.5174 2.37211
lowerback -1.11462 -1.78181 -4.69992
upperback -1.60798 -2.34414 3.28242
thorax -0.707446 -1.11619 6.02719
lowerneck -32.3638 -1.0759 -8.69833
upperneck 1.54999 1.06765 6.87197
head 5.19763 0.999574 3.79675
rclavicle 6.40149e-015 1.82882e-014
rhumerus -32.5192 -0.691542 -79.9243
rradius 30.67
rwrist 19.8468
rhand -17.833 8.09722
rfingers 7.12502
rthumb 8.43149 -21.7145
lclavicle 6.40149e-015 1.82882e-014
lhumerus 56.1906 8.56314 49.4064
lradius 99.217
lwrist -16.2434
lhand -47.9824 20.279
lfingers 7.12502
lthumb -20.6515 49.2003
rfemur -7.88832 8.9975 13.9034
rtibia 26.3699
rfoot -18.1019 -2.93135
rtoes 3.64329
lfemur 2.94835 -1.9933 -23.1073
ltibia 9.06099
lfoot -10.2206 6.30227
ltoes -12.4054
229
root -0.115932 17.9372 -0.427085 2.78815 -10.5125 2.36471
lowerback -1.14585 -1.77666 -4.67303
upperback -1.6207 -2.33626 3.26373
thorax -0.705887 -1.11227 5.99146
lowerneck -32.3661 -1.05311 -8.6115
upperneck 1.51856 1.0708 6.81824
head 5.18766 0.997565 3.76489
rclavicle 5.54827e-014 -5.56597e-015
rhumerus -32.5553 -0.688129 -79.9424
rradius 30.6308
rwrist 19.8321
rhand -17.8298 8.03176
rfingers 7.12502
rthumb 8.43461 -21.7798
lclavicle 5.54827e-014 -5.56597e-015
lhumerus 56.2483 8.64277 49.435
lradius 99.2772
lwrist -16.6852
lhand -47.8633 20.191
lfingers 7.12502
lthumb -20.537 49.1247
rfemur -7.91085 8.96937 13.9102
rtibia 26.3506
rfoot -18.0939 -2.93443
rtoes 3.62349
lfemur 2.91844 -1.99865 -23.0997
ltibia 9.08132
lfoot -10.2117 6.33194
ltoes -12.7708
230
root -0.11622 17.9372 -0.424599 2.77528 -10.4955 2.39046
lowerback -1.17824 -1.78582 -4.6655
upperback -1.60278 -2.3474 3.24069
thorax -0.668856 -1.11958 5.96119
lowerneck -32.4343 -1.04854 -8.60065
upperneck 1.53872 1.07545 6.83523
head 5.20262 1.0022 3.77078
rclavicle 2.24316e-014 -2.06736e-014
rhumerus -32.5501 -0.646869 -79.9671
rradius 30.5728
rwrist 19.8291
rhand -17.832 7.98163
rfingers 7.12502
rthumb 8.43251 -21.83
lclavicle 2.24316e-014 -2.06736e-014
lhumerus 56.2849 8.72636 49.4295
lradius 99.2989
lwrist -17.0014
lhand -47.4855 20.6718
lfingers 7.12502
lthumb -20.174 49.6442
rfemur -7.87285 8.94087 13.8785
rtibia 26.3258
rfoot -18.0933 -2.87623
rtoes 4.05511
lfemur 2.92814 -2.01567 -23.1295
ltibia 9.11795
lfoot -10.2479 6.35445
ltoes -13.0798
